Coordinates
version=1
nRows=11
nColumns=40
inDegrees=yes

Units are S.I. units (second, meters, Newtons, ...)
If the header above contains a line with 'inDegrees', this indicates whether rotational values are in degrees (yes) or radians (no).

endheader
time	pelvis_tilt	pelvis_list	pelvis_rotation	pelvis_tx	pelvis_ty	pelvis_tz	hip_flexion_r	hip_adduction_r	hip_rotation_r	knee_angle_r	knee_angle_r_beta	ankle_angle_r	subtalar_angle_r	mtp_angle_r	hip_flexion_l	hip_adduction_l	hip_rotation_l	knee_angle_l	knee_angle_l_beta	ankle_angle_l	subtalar_angle_l	mtp_angle_l	lumbar_extension	lumbar_bending	lumbar_rotation	arm_flex_r	arm_add_r	arm_rot_r	elbow_flex_r	pro_sup_r	wrist_flex_r	wrist_dev_r	arm_flex_l	arm_add_l	arm_rot_l	elbow_flex_l	pro_sup_l	wrist_flex_l	wrist_dev_l
      1.34000000	      1.50316797	     -6.71159830	     89.78563181	      0.17332838	      0.89101048	     -0.75990428	    -12.91493907	      5.04155744	      4.42399900	      3.77019161	      0.06580226	     14.17225408	      0.00000000	      0.00000000	     31.04449979	     -1.30111306	      4.83459611	     -0.21336689	     -0.00372395	     -0.98880124	      0.00000000	      0.00000000	      2.82477972	      0.11519147	      5.80756084	      0.00000000	      0.00000000	      0.00000000	      0.00000000	      0.00000000	      0.00000000	      0.00000000	      0.00000000	      0.00000000	      0.00000000	      0.00000000	      0.00000000	      0.00000000	      0.00000000
      1.35000000	      1.15692158	     -6.66036250	     89.77272816	      0.17177307	      0.89046264	     -0.77462618	    -13.06400225	      4.52890330	      3.90793339	      5.35364751	      0.09343878	     13.78418257	      0.00000000	      0.00000000	     31.00670717	     -0.80981960	      4.69981788	      0.87210220	      0.01522105	     -2.32194713	      0.00000000	      0.00000000	      2.92763462	     -0.27531485	      5.66709383	      0.00000000	      0.00000000	      0.00000000	      0.00000000	      0.00000000	      0.00000000	      0.00000000	      0.00000000	      0.00000000	      0.00000000	      0.00000000	      0.00000000	      0.00000000	      0.00000000
      1.36000000	      0.77866367	     -6.61867301	     89.75945922	      0.17016970	      0.89023124	     -0.78940099	    -12.99137452	      3.96895732	      3.23408850	      7.27059590	      0.12689584	     13.15430970	      0.00000000	      0.00000000	     31.04168030	     -0.27632245	      4.22702020	      2.30562353	      0.04024072	     -3.88605172	      0.00000000	      0.00000000	      3.05312425	     -0.69253898	      5.50749253	      0.00000000	      0.00000000	      0.00000000	      0.00000000	      0.00000000	      0.00000000	      0.00000000	      0.00000000	      0.00000000	      0.00000000	      0.00000000	      0.00000000	      0.00000000	      0.00000000
      1.37000000	      0.34746612	     -6.61780985	     89.74154020	      0.16854458	      0.89025271	     -0.80423857	    -12.64396051	      3.33043123	      2.39294391	      9.54442010	      0.16658156	     12.25133630	      0.00000000	      0.00000000	     31.13685083	      0.29642169	      3.54240675	      3.93250911	      0.06863523	     -5.55917997	      0.00000000	      0.00000000	      3.24453251	     -1.17767844	      5.37458758	      0.00000000	      0.00000000	      0.00000000	      0.00000000	      0.00000000	      0.00000000	      0.00000000	      0.00000000	      0.00000000	      0.00000000	      0.00000000	      0.00000000	      0.00000000	      0.00000000
      1.38000000	     -0.09943616	     -6.64749859	     89.73315134	      0.16684865	      0.89054701	     -0.81907144	    -12.04187733	      2.63997822	      1.41188603	     12.14231242	      0.21192333	     11.02538153	      0.00000000	      0.00000000	     31.26361493	      0.87968873	      2.78127293	      5.66470913	      0.09886783	     -7.10312004	      0.00000000	      0.00000000	      3.47364805	     -1.67464133	      5.19230645	      0.00000000	      0.00000000	      0.00000000	      0.00000000	      0.00000000	      0.00000000	      0.00000000	      0.00000000	      0.00000000	      0.00000000	      0.00000000	      0.00000000	      0.00000000	      0.00000000
      1.39000000	     -0.54223857	     -6.62155172	     89.71832285	      0.16522046	      0.89121458	     -0.83391420	    -11.26834559	      1.91438369	      0.35658234	     15.06172309	      0.26287666	      9.37078061	      0.00000000	      0.00000000	     31.27616066	      1.43160042	      2.05705209	      7.37376948	      0.12869656	     -8.30767455	      0.00000000	      0.00000000	      3.64559285	     -2.18110199	      5.01731062	      0.00000000	      0.00000000	      0.00000000	      0.00000000	      0.00000000	      0.00000000	      0.00000000	      0.00000000	      0.00000000	      0.00000000	      0.00000000	      0.00000000	      0.00000000	      0.00000000
      1.40000000	     -1.04000041	     -6.84778666	     89.70664273	      0.16342531	      0.89180593	     -0.84856468	     -9.92839110	      1.06071232	     -0.75214309	     18.42741781	      0.32161911	      7.46575599	      0.00000000	      0.00000000	     31.51124359	      2.04048713	      1.41460668	      9.02552796	      0.15752518	     -9.20898104	      0.00000000	      0.00000000	      4.10598868	     -2.71326214	      4.85193341	      0.00000000	      0.00000000	      0.00000000	      0.00000000	      0.00000000	      0.00000000	      0.00000000	      0.00000000	      0.00000000	      0.00000000	      0.00000000	      0.00000000	      0.00000000	      0.00000000
      1.41000000	     -1.59098787	     -6.79813291	     89.69655360	      0.16162643	      0.89306851	     -0.86328871	     -8.74423737	      0.08875223	     -1.86758037	     21.93679429	      0.38286929	      4.95352867	      0.00000000	      0.00000000	     31.31008777	      2.69529570	      0.82413117	     10.47693400	      0.18285699	     -9.58392545	      0.00000000	      0.00000000	      4.23621609	     -3.31079391	      4.66847149	      0.00000000	      0.00000000	      0.00000000	      0.00000000	      0.00000000	      0.00000000	      0.00000000	      0.00000000	      0.00000000	      0.00000000	      0.00000000	      0.00000000	      0.00000000	      0.00000000
      1.42000000	     -2.17239212	     -6.87112257	     89.68837502	      0.15979101	      0.89439997	     -0.87777330	     -7.18184590	     -0.97234036	     -2.87501771	     25.77543075	      0.44986613	      2.19473441	      0.00000000	      0.00000000	     31.13380154	      3.39227453	      0.41173663	     11.74396728	      0.20497090	     -9.56735384	      0.00000000	      0.00000000	      4.49408634	     -3.94318756	      4.46280303	      0.00000000	      0.00000000	      0.00000000	      0.00000000	      0.00000000	      0.00000000	      0.00000000	      0.00000000	      0.00000000	      0.00000000	      0.00000000	      0.00000000	      0.00000000	      0.00000000
      1.43000000	     -2.74962774	     -6.89489937	     89.68015361	      0.15793619	      0.89598738	     -0.89209440	     -5.49549872	     -2.06685217	     -3.68655164	     29.80826577	      0.52025238	     -0.70512857	      0.00000000	      0.00000000	     30.77820132	      4.08994931	      0.05907513	     12.78100819	      0.22307067	     -9.19054974	      0.00000000	      0.00000000	      4.67049240	     -4.55484369	      4.27399488	      0.00000000	      0.00000000	      0.00000000	      0.00000000	      0.00000000	      0.00000000	      0.00000000	      0.00000000	      0.00000000	      0.00000000	      0.00000000	      0.00000000	      0.00000000	      0.00000000
      1.44000000	     -3.34087188	     -6.90266371	     89.67861007	      0.15609652	      0.89776231	     -0.90615225	     -3.65768574	     -3.20767311	     -4.34985394	     33.97921184	      0.59304912	     -3.60197935	      0.00000000	      0.00000000	     30.27695727	      4.81429217	     -0.18689294	     13.59831867	      0.23733543	     -8.56124046	      0.00000000	      0.00000000	      4.78508825	     -5.17381003	      4.04788572	      0.00000000	      0.00000000	      0.00000000	      0.00000000	      0.00000000	      0.00000000	      0.00000000	      0.00000000	      0.00000000	      0.00000000	      0.00000000	      0.00000000	      0.00000000	      0.00000000
